<svg width="40" height="39" viewBox="0 0 40 39" fill="none" xmlns="http://www.w3.org/2000/svg">
<path d="M4.16669 6.27392C4.16669 5.05243 5.20773 4.0625 6.49221 4.0625H33.5078C34.7923 4.0625 35.8334 5.05243 35.8334 6.27392V32.7261C35.8334 33.9476 34.7923 34.9375 33.5078 34.9375H6.49221C5.20773 34.9375 4.16669 33.9476 4.16669 32.7261V6.27392ZM13.9497 29.9087V15.9667H9.19773V29.9087H13.9497ZM11.5747 14.0621C13.2313 14.0621 14.2624 12.9931 14.2624 11.6539C14.2327 10.2857 13.2332 9.24564 11.6064 9.24564C9.9795 9.24564 8.91669 10.2877 8.91669 11.6539C8.91669 12.9931 9.94783 14.0621 11.543 14.0621H11.5747ZM21.2885 29.9087V22.1224C21.2885 21.7056 21.3201 21.2888 21.4468 20.9916C21.7892 20.16 22.571 19.2974 23.8851 19.2974C25.605 19.2974 26.2918 20.5748 26.2918 22.4505V29.9087H31.0438V21.9121C31.0438 17.6282 28.7004 15.6368 25.5734 15.6368C23.0519 15.6368 21.9218 16.9875 21.2885 17.9389V17.9871H21.2568C21.2673 17.971 21.2779 17.9549 21.2885 17.9389V15.9667H16.5385C16.5978 17.2751 16.5385 29.9087 16.5385 29.9087H21.2885Z" fill="#25282B"/>
</svg>
