<svg width="41" height="39" viewBox="0 0 41 39" fill="none" xmlns="http://www.w3.org/2000/svg">
<path fill-rule="evenodd" clip-rule="evenodd" d="M2.67461 9.86917C2.90066 8.91203 3.45636 8.05743 4.25069 7.44533C5.04502 6.83324 6.03091 6.49993 7.04688 6.5H33.9531C34.9691 6.49993 35.955 6.83324 36.7493 7.44533C37.5436 8.05743 38.0993 8.91203 38.3254 9.86917L20.5 20.397L2.67461 9.86917ZM2.5625 12.3435V27.7355L15.5739 20.0265L2.5625 12.3435ZM17.7219 21.2983L2.99076 30.0235C3.35472 30.7651 3.92917 31.3916 4.64724 31.83C5.36532 32.2684 6.19748 32.5008 7.04688 32.5H33.9531C34.8024 32.5002 35.6342 32.2673 36.3519 31.8285C37.0696 31.3897 37.6435 30.763 38.007 30.0213L23.2758 21.2962L20.5 22.9363L17.7219 21.2962V21.2983ZM25.4261 20.0287L38.4375 27.7355V12.3435L25.4261 20.0265V20.0287Z" fill="#25282B"/>
</svg>
